<svg version="1.0" xmlns="http://www.w3.org/2000/svg" width="80.000000" height="80.000000" preserveAspectRatio="xMidYMid meet" style=""><rect id="backgroundrect" width="100%" height="100%" x="0" y="0" fill="none" stroke="none"/>


<g class="currentLayer" style=""><title>Layer 1</title><g transform="translate(0, 80) scale(0.1, -0.1)" fill="#ffffff" stroke="#ffffff" id="svg_1" class="selected" fill-opacity="1" stroke-opacity="1" stroke-width="15">
<path d="M280 704 c-132 -48 -210 -158 -197 -279 6 -62 30 -111 95 -197 27 -35 54 -85 61 -111 15 -53 37 -65 26 -14 -10 43 -36 93 -75 142 -60 75 -82 122 -87 188 -4 54 -1 69 24 117 64 121 209 177 351 135 56 -17 126 -70 115 -88 -4 -7 0 -8 11 -4 25 10 70 -17 85 -50 19 -42 25 -125 11 -167 -30 -92 -128 -86 -224 13 -40 41 -44 65 -21 123 5 13 -2 23 -27 38 -39 23 -76 25 -121 6 -45 -19 -68 -48 -74 -94 -6 -45 10 -81 69 -156 52 -66 87 -136 95 -191 6 -47 23 -63 23 -22 0 55 -34 130 -100 223 -81 113 -88 144 -42 194 31 35 82 47 125 31 26 -10 27 -12 21 -65 -6 -53 -6 -55 36 -99 49 -54 111 -87 162 -87 36 0 36 0 43 -52 8 -59 -6 -78 -57 -78 -15 0 -28 -5 -28 -11 0 -8 14 -10 40 -6 46 6 48 0 19 -37 -25 -32 -18 -47 11 -21 30 27 43 80 36 149 -5 53 -3 68 19 110 27 53 32 107 15 168 -12 42 -55 98 -76 98 -7 0 -28 13 -46 29 -59 51 -115 73 -197 77 -54 3 -89 0 -121 -12z" id="svg_2" fill="#ffffff" fill-opacity="1" stroke="#ffffff" stroke-opacity="1" stroke-width="15"/>
<path d="M335 670 c3 -5 8 -10 11 -10 2 0 4 5 4 10 0 6 -5 10 -11 10 -5 0 -7 -4 -4 -10z" id="svg_3" fill="#ffffff" fill-opacity="1" stroke="#ffffff" stroke-opacity="1" stroke-width="15"/>
<path d="M415 670 c3 -5 8 -10 11 -10 2 0 4 5 4 10 0 6 -5 10 -11 10 -5 0 -7 -4 -4 -10z" id="svg_4" fill="#ffffff" fill-opacity="1" stroke="#ffffff" stroke-opacity="1" stroke-width="15"/>
<path d="M490 650 c0 -5 5 -10 10 -10 6 0 10 5 10 10 0 6 -4 10 -10 10 -5 0 -10 -4 -10 -10z" id="svg_5" fill="#ffffff" fill-opacity="1" stroke="#ffffff" stroke-opacity="1" stroke-width="15"/>
<path d="M525 630 c-3 -5 -1 -10 4 -10 6 0 11 5 11 10 0 6 -2 10 -4 10 -3 0 -8 -4 -11 -10z" id="svg_6" fill="#ffffff" fill-opacity="1" stroke="#ffffff" stroke-opacity="1" stroke-width="15"/>
<path d="M190 600 c0 -5 5 -10 10 -10 6 0 10 5 10 10 0 6 -4 10 -10 10 -5 0 -10 -4 -10 -10z" id="svg_7" fill="#ffffff" fill-opacity="1" stroke="#ffffff" stroke-opacity="1" stroke-width="15"/>
<path d="M555 600 c3 -5 8 -10 11 -10 2 0 4 5 4 10 0 6 -5 10 -11 10 -5 0 -7 -4 -4 -10z" id="svg_8" fill="#ffffff" fill-opacity="1" stroke="#ffffff" stroke-opacity="1" stroke-width="15"/>
<path d="M145 540 c-3 -5 -1 -10 4 -10 6 0 11 5 11 10 0 6 -2 10 -4 10 -3 0 -8 -4 -11 -10z" id="svg_9" fill="#ffffff" fill-opacity="1" stroke="#ffffff" stroke-opacity="1" stroke-width="15"/>
<path d="M130 500 c0 -5 5 -10 10 -10 6 0 10 5 10 10 0 6 -4 10 -10 10 -5 0 -10 -4 -10 -10z" id="svg_10" fill="#ffffff" fill-opacity="1" stroke="#ffffff" stroke-opacity="1" stroke-width="15"/>
<path d="M667 503 c-13 -12 -7 -33 8 -33 19 0 20 -18 0 -22 -10 -2 -12 -8 -6 -17 13 -20 31 -4 31 28 0 29 -21 57 -33 44z" id="svg_11" fill="#ffffff" fill-opacity="1" stroke="#ffffff" stroke-opacity="1" stroke-width="15"/>
<path d="M504 435 c-8 -19 13 -62 33 -70 21 -7 33 3 33 27 0 21 -1 21 -20 3 -20 -18 -21 -18 -18 15 3 35 -17 54 -28 25z" id="svg_12" fill="#ffffff" fill-opacity="1" stroke="#ffffff" stroke-opacity="1" stroke-width="15"/>
<path d="M625 430 c-3 -5 -1 -10 4 -10 6 0 11 5 11 10 0 6 -2 10 -4 10 -3 0 -8 -4 -11 -10z" id="svg_13" fill="#ffffff" fill-opacity="1" stroke="#ffffff" stroke-opacity="1" stroke-width="15"/>
<path d="M640 390 c0 -5 5 -10 11 -10 5 0 7 5 4 10 -3 6 -8 10 -11 10 -2 0 -4 -4 -4 -10z" id="svg_14" fill="#ffffff" fill-opacity="1" stroke="#ffffff" stroke-opacity="1" stroke-width="15"/>
<path d="M135 380 c3 -5 8 -10 11 -10 2 0 4 5 4 10 0 6 -5 10 -11 10 -5 0 -7 -4 -4 -10z" id="svg_15" fill="#ffffff" fill-opacity="1" stroke="#ffffff" stroke-opacity="1" stroke-width="15"/>
<path d="M175 310 c3 -5 8 -10 11 -10 2 0 4 5 4 10 0 6 -5 10 -11 10 -5 0 -7 -4 -4 -10z" id="svg_16" fill="#ffffff" fill-opacity="1" stroke="#ffffff" stroke-opacity="1" stroke-width="15"/>
<path d="M260 180 c0 -5 5 -10 10 -10 6 0 10 5 10 10 0 6 -4 10 -10 10 -5 0 -10 -4 -10 -10z" id="svg_17" fill="#ffffff" fill-opacity="1" stroke="#ffffff" stroke-opacity="1" stroke-width="15"/>
<path d="M275 140 c3 -5 8 -10 11 -10 2 0 4 5 4 10 0 6 -5 10 -11 10 -5 0 -7 -4 -4 -10z" id="svg_18" fill="#ffffff" fill-opacity="1" stroke="#ffffff" stroke-opacity="1" stroke-width="15"/>
<path d="M285 100 c3 -5 8 -10 11 -10 2 0 4 5 4 10 0 6 -5 10 -11 10 -5 0 -7 -4 -4 -10z" id="svg_19" fill="#ffffff" fill-opacity="1" stroke="#ffffff" stroke-opacity="1" stroke-width="15"/>
</g></g></svg>