<svg xmlns="http://www.w3.org/2000/svg" viewBox="0 0 32 40" x="0px" y="0px"><g><path d="M29.5127,26.51465a1.30221,1.30221,0,0,1-1.11133-.62158c-3.59018-5.418-8.39426-7.661-15.57715-7.37012v1.26514a1.74949,1.74949,0,0,1-2.79688,1.37939h0l-8.1875-6.28076a1.73854,1.73854,0,0,1,0-2.75928l8.1875-6.28125a1.74964,1.74964,0,0,1,2.79685,1.37994l0,1.25678A18.373,18.373,0,0,1,30.77344,24.58154l.05664.457A1.3239,1.3239,0,0,1,29.5127,26.51465Zm-.667-1.23047v0ZM14.03027,16.5c6.24205.00624,10.46126,1.81664,14.28223,5.94238A16.3757,16.3757,0,0,0,12.5625,10.481a1.74056,1.74056,0,0,1-1.73828-1.73828V7.75537L3.32715,13.50684l7.49707,5.75146v-.98682a1.74066,1.74066,0,0,1,1.73828-1.73877Q13.314,16.50049,14.03027,16.5Zm-1.41113,2.03125-.01367.00049h.001Z"/></g></svg>
